<svg xmlns="http://www.w3.org/2000/svg" xmlns:xlink="http://www.w3.org/1999/xlink" width="960" zoomAndPan="magnify" viewBox="0 0 720 149.999998" height="200" preserveAspectRatio="xMidYMid meet" version="1.0"><path fill="#0e0d0d" d="M 0 40.5 L 24 39.976562 C 48 39.523438 96 38.476562 144 43.648438 C 192 48.75 240 60 288 60.601562 C 336 61.273438 384 51.226562 432 42.148438 C 480 33 528 24.75 576 25.5 C 624 26.25 672 36 696 40.875 L 720 45.75 L 720 150.75 L 696 150.75 C 672 150.75 624 150.75 576 150.75 C 528 150.75 480 150.75 432 150.75 C 384 150.75 336 150.75 288 150.75 C 240 150.75 192 150.75 144 150.75 C 96 150.75 48 150.75 24 150.75 L 0 150.75 Z M 0 40.5 " fill-opacity="1" fill-rule="nonzero"/><path fill="#151414" d="M 0 88.5 L 24 89.851562 C 48 91.273438 96 93.976562 144 90.148438 C 192 86.25 240 75.75 288 70.875 C 336 66 384 66.75 432 73.5 C 480 80.25 528 93 576 92.023438 C 624 90.976562 672 76.273438 696 68.851562 L 720 61.5 L 720 150.75 L 696 150.75 C 672 150.75 624 150.75 576 150.75 C 528 150.75 480 150.75 432 150.75 C 384 150.75 336 150.75 288 150.75 C 240 150.75 192 150.75 144 150.75 C 96 150.75 48 150.75 24 150.75 L 0 150.75 Z M 0 88.5 " fill-opacity="1" fill-rule="nonzero"/><path fill="#1b1919" d="M 0 111.75 L 24 112.273438 C 48 112.726562 96 113.773438 144 110.476562 C 192 107.25 240 99.75 288 99.75 C 336 99.75 384 107.25 432 109.351562 C 480 111.523438 528 108.226562 576 103.726562 C 624 99.226562 672 93.523438 696 90.601562 L 720 87.75 L 720 150.75 L 696 150.75 C 672 150.75 624 150.75 576 150.75 C 528 150.75 480 150.75 432 150.75 C 384 150.75 336 150.75 288 150.75 C 240 150.75 192 150.75 144 150.75 C 96 150.75 48 150.75 24 150.75 L 0 150.75 Z M 0 111.75 " fill-opacity="1" fill-rule="nonzero"/></svg>